<svg xmlns="http://www.w3.org/2000/svg" width="37.897" height="39.354" viewBox="0 0 37.897 39.354"><g id="Housing_Lender_Icon_Dark_Grey" data-name="Housing Lender Icon Dark Grey" transform="translate(18.948 19.678)"><g id="Group_162" data-name="Group 162" transform="translate(-18.948 -19.677)"><g id="Group_159" data-name="Group 159"><path id="Path_709" data-name="Path 709" d="M37.9,11.207a.441.441,0,0,0-.263-.432c-.453-.249-.9-.51-1.344-.772Q33.9,8.593,31.509,7.179q-3.2-1.882-6.4-3.758C23.282,2.349,21.459,1.278,19.644.193c-.33-.2-.617-.307-.94-.009a1.817,1.817,0,0,1-.347.2q-3.321,1.892-6.642,3.784C9.646,5.34,7.572,6.506,5.5,7.684,3.8,8.655,2.1,9.648.387,10.6a.629.629,0,0,0-.381.643c.011.989,0,1.979-.006,2.968-.006.536-.015.533.521.531.795,0,1.589,0,2.42,0V28.323H17.778q8.387,0,16.773.007c.247,0,.309-.083.308-.315q-.009-4.7-.006-9.4,0-1.729,0-3.458c0-.365.055-.415.414-.416.768,0,1.537-.007,2.305,0,.217,0,.31-.057.31-.288C37.882,13.377,37.887,12.292,37.9,11.207ZM30.881,24.885q-2.962,0-5.923,0H7.217c-.411,0-.412,0-.412-.409q0-6.414-.006-12.827a.58.58,0,0,1,.335-.586c1.833-1.056,3.656-2.13,5.48-3.2q2.38-1.4,4.756-2.8c.536-.316,1.07-.635,1.615-.935a.414.414,0,0,1,.347,0c1.136.674,2.261,1.367,3.394,2.046,1.762,1.054,3.529,2.1,5.293,3.151.989.59,1.972,1.19,2.965,1.772a.44.44,0,0,1,.246.436q-.007,6.514,0,13.028C31.233,24.842,31.127,24.885,30.881,24.885Z" transform="translate(0 0)" fill="#63656a"></path><path id="Path_710" data-name="Path 710" d="M18.363,63.31h0Z" transform="translate(-11.146 -38.429)" fill="#63656a"></path><path id="Path_711" data-name="Path 711" d="M44.773,46.38c0-.4,0-.4-.389-.4H32.518c-.482,0-.482,0-.482.466v2.506c0,.42,0,.421.408.421h5.962q2.278,0,4.558,0l1.519,0c.231,0,.3-.07.295-.293C44.768,48.184,44.773,47.282,44.773,46.38Z" transform="translate(-19.446 -27.91)" fill="#63656a"></path><path id="Path_712" data-name="Path 712" d="M39.035,54.613h0q2.278,0,4.558,0Q41.313,54.61,39.035,54.613Z" transform="translate(-20.075 -33.15)" fill="#63656a"></path><path id="Path_713" data-name="Path 713" d="M44.448,33.255q-6.036.013-12.072,0c-.291,0-.357.1-.353.371.014.854.005,1.709.005,2.564,0,.425,0,.426.421.426h12.3c.007-.12.015-.2.015-.27,0-.922-.007-1.844.005-2.766C44.773,33.334,44.708,33.254,44.448,33.255Z" transform="translate(-19.438 -20.186)" fill="#63656a"></path></g><g id="Group_160" data-name="Group 160" transform="translate(3.28 29.91)"><path id="Path_714" data-name="Path 714" d="M8.346,76.216h1.917v.5H8.9v.516h1.2v.5H8.9v.534h1.38v.5H8.346Z" transform="translate(-8.346 -76.173)" fill="#63656a"></path><path id="Path_715" data-name="Path 715" d="M16.354,78.517a1.387,1.387,0,0,1-.756.218,1.3,1.3,0,0,1-1.347-1.308v-.007a1.352,1.352,0,0,1,2.7-.007v.007a1.287,1.287,0,0,1-.225.73l.261.222-.356.4Zm-.414-.367-.414-.353.356-.4.418.378a.843.843,0,0,0,.069-.349v-.007a.773.773,0,0,0-.77-.8.76.76,0,0,0-.762.792v.007a.772.772,0,0,0,.77.8A.818.818,0,0,0,15.94,78.151Z" transform="translate(-11.93 -76.106)" fill="#63656a"></path><path id="Path_716" data-name="Path 716" d="M22.291,77.669V76.216h.559v1.438c0,.414.207.628.548.628s.549-.207.549-.61V76.216h.559v1.435A1.023,1.023,0,0,1,23.391,78.8,1.009,1.009,0,0,1,22.291,77.669Z" transform="translate(-16.811 -76.173)" fill="#63656a"></path><path id="Path_717" data-name="Path 717" d="M29.684,76.17H30.2l1.09,2.561H30.7l-.233-.57H29.4l-.233.57h-.57Zm.588,1.5-.338-.825-.338.825Z" transform="translate(-20.637 -76.145)" fill="#63656a"></path><path id="Path_718" data-name="Path 718" d="M36.449,76.216h.559V78.25h1.268v.509H36.449Z" transform="translate(-25.405 -76.173)" fill="#63656a"></path><path id="Path_719" data-name="Path 719" d="M44.942,76.216H45.5v1.006h1.032V76.216h.559v2.543h-.559V77.738H45.5v1.021h-.559Z" transform="translate(-30.56 -76.173)" fill="#63656a"></path><path id="Path_720" data-name="Path 720" d="M51.678,77.428v-.007a1.352,1.352,0,0,1,2.7-.007v.007a1.352,1.352,0,0,1-2.7.007Zm2.118,0v-.007a.773.773,0,0,0-.77-.8.761.761,0,0,0-.763.792v.007a.773.773,0,0,0,.77.8A.76.76,0,0,0,53.8,77.428Z" transform="translate(-34.649 -76.106)" fill="#63656a"></path><path id="Path_721" data-name="Path 721" d="M59.719,77.669V76.216h.559v1.438c0,.414.207.628.548.628s.549-.207.549-.61V76.216h.559v1.435A1.023,1.023,0,0,1,60.819,78.8,1.009,1.009,0,0,1,59.719,77.669Z" transform="translate(-39.529 -76.173)" fill="#63656a"></path><path id="Path_722" data-name="Path 722" d="M66.363,78.332l.331-.4a1.167,1.167,0,0,0,.759.309c.229,0,.367-.091.367-.24V78c0-.142-.087-.214-.512-.323-.512-.13-.843-.272-.843-.777V76.89a.8.8,0,0,1,.89-.766,1.471,1.471,0,0,1,.944.323l-.29.421a1.192,1.192,0,0,0-.661-.251c-.214,0-.327.1-.327.222v.007c0,.167.109.222.548.334.516.134.806.32.806.763v.007c0,.5-.385.788-.933.788A1.618,1.618,0,0,1,66.363,78.332Z" transform="translate(-43.562 -76.117)" fill="#63656a"></path><path id="Path_723" data-name="Path 723" d="M72.786,76.216h.559v2.543h-.559Z" transform="translate(-47.461 -76.173)" fill="#63656a"></path><path id="Path_724" data-name="Path 724" d="M75.826,76.216h.516l1.191,1.566V76.216h.552v2.543h-.476l-1.231-1.616v1.616h-.552Z" transform="translate(-49.306 -76.173)" fill="#63656a"></path><path id="Path_725" data-name="Path 725" d="M82.84,77.428v-.007a1.3,1.3,0,0,1,1.333-1.315,1.4,1.4,0,0,1,1,.349l-.352.425a.936.936,0,0,0-.665-.258.764.764,0,0,0-.73.792v.007a.762.762,0,0,0,.77.806.893.893,0,0,0,.526-.152v-.364h-.563v-.483h1.1v1.1a1.651,1.651,0,0,1-1.086.4A1.273,1.273,0,0,1,82.84,77.428Z" transform="translate(-53.564 -76.106)" fill="#63656a"></path></g><g id="Group_161" data-name="Group 161" transform="translate(3.616 34.014)"><path id="Path_726" data-name="Path 726" d="M9.2,86.55h1.175v4.272h2.663V91.89H9.2Z" transform="translate(-9.2 -86.55)" fill="#63656a"></path><path id="Path_727" data-name="Path 727" d="M21.216,86.55h4.028V87.6H22.383v1.083H24.9v1.045H22.383v1.121h2.9V91.89H21.216Z" transform="translate(-16.494 -86.55)" fill="#63656a"></path><path id="Path_728" data-name="Path 728" d="M34.223,86.55h1.083l2.5,3.288V86.55h1.16v5.34h-1l-2.586-3.4v3.4H34.223Z" transform="translate(-24.389 -86.55)" fill="#63656a"></path><path id="Path_729" data-name="Path 729" d="M49.558,86.55h2.083a2.662,2.662,0,0,1,2.838,2.655v.015a2.674,2.674,0,0,1-2.838,2.67H49.558Zm2.083,4.28a1.522,1.522,0,0,0,1.61-1.594V89.22a1.534,1.534,0,0,0-1.61-1.61h-.908V90.83Z" transform="translate(-33.697 -86.55)" fill="#63656a"></path><path id="Path_730" data-name="Path 730" d="M64.739,86.55h4.028V87.6H65.906v1.083h2.518v1.045H65.906v1.121h2.9V91.89H64.739Z" transform="translate(-42.912 -86.55)" fill="#63656a"></path><path id="Path_731" data-name="Path 731" d="M77.745,86.55h2.441a2.129,2.129,0,0,1,1.557.542,1.676,1.676,0,0,1,.457,1.221v.015a1.659,1.659,0,0,1-1.144,1.656l1.3,1.907H80.988l-1.144-1.709H78.92V91.89H77.745Zm2.365,2.594c.572,0,.9-.3.9-.755v-.015c0-.5-.351-.763-.923-.763H78.92v1.533Z" transform="translate(-50.807 -86.55)" fill="#63656a"></path></g></g></g></svg>